<mxfile host="Electron" modified="2024-05-21T21:54:17.774Z" agent="Mozilla/5.0 (Windows NT 10.0; Win64; x64) AppleWebKit/537.36 (KHTML, like Gecko) draw.io/23.0.2 Chrome/120.0.6099.109 Electron/28.1.0 Safari/537.36" etag="NviqzK5L3ab-Xz1jCuWE" version="23.0.2" type="device">
  <diagram name="Страница — 1" id="AqT54YZKVvTG2FDtbktm">
    <mxGraphModel dx="1154" dy="1438" grid="1" gridSize="10" guides="1" tooltips="1" connect="1" arrows="1" fold="1" page="0" pageScale="1" pageWidth="850" pageHeight="1100" math="0" shadow="0">
      <root>
        <mxCell id="0" />
        <mxCell id="1" parent="0" />
        <mxCell id="FaiDNbWziGu28Ss7Wq-9-161" value="loop" style="shape=umlFrame;whiteSpace=wrap;html=1;pointerEvents=0;" parent="1" vertex="1">
          <mxGeometry x="3300" y="290" width="390" height="220" as="geometry" />
        </mxCell>
        <mxCell id="FaiDNbWziGu28Ss7Wq-9-14" value="+ProductModel  " style="swimlane;fontStyle=0;align=center;verticalAlign=top;childLayout=stackLayout;horizontal=1;startSize=26;horizontalStack=0;resizeParent=1;resizeLast=0;collapsible=1;marginBottom=0;rounded=0;shadow=0;strokeWidth=1;" parent="1" vertex="1">
          <mxGeometry x="1670" y="180" width="380" height="420" as="geometry">
            <mxRectangle x="230" y="140" width="160" height="26" as="alternateBounds" />
          </mxGeometry>
        </mxCell>
        <mxCell id="FaiDNbWziGu28Ss7Wq-9-15" value="&lt;&lt;getter&gt;&gt;+product_id:int" style="text;align=left;verticalAlign=top;spacingLeft=4;spacingRight=4;overflow=hidden;rotatable=0;points=[[0,0.5],[1,0.5]];portConstraint=eastwest;" parent="FaiDNbWziGu28Ss7Wq-9-14" vertex="1">
          <mxGeometry y="26" width="380" height="26" as="geometry" />
        </mxCell>
        <mxCell id="FaiDNbWziGu28Ss7Wq-9-16" value="&lt;&lt;setter&gt;&gt;+product_id:int" style="text;align=left;verticalAlign=top;spacingLeft=4;spacingRight=4;overflow=hidden;rotatable=0;points=[[0,0.5],[1,0.5]];portConstraint=eastwest;rounded=0;shadow=0;html=0;" parent="FaiDNbWziGu28Ss7Wq-9-14" vertex="1">
          <mxGeometry y="52" width="380" height="26" as="geometry" />
        </mxCell>
        <mxCell id="FaiDNbWziGu28Ss7Wq-9-20" value="&lt;&lt;getter&gt;&gt;+name:string" style="text;align=left;verticalAlign=top;spacingLeft=4;spacingRight=4;overflow=hidden;rotatable=0;points=[[0,0.5],[1,0.5]];portConstraint=eastwest;" parent="FaiDNbWziGu28Ss7Wq-9-14" vertex="1">
          <mxGeometry y="78" width="380" height="26" as="geometry" />
        </mxCell>
        <mxCell id="FaiDNbWziGu28Ss7Wq-9-21" value="&lt;&lt;setter&gt;&gt;+name:string" style="text;align=left;verticalAlign=top;spacingLeft=4;spacingRight=4;overflow=hidden;rotatable=0;points=[[0,0.5],[1,0.5]];portConstraint=eastwest;rounded=0;shadow=0;html=0;" parent="FaiDNbWziGu28Ss7Wq-9-14" vertex="1">
          <mxGeometry y="104" width="380" height="26" as="geometry" />
        </mxCell>
        <mxCell id="FaiDNbWziGu28Ss7Wq-9-24" value="&lt;&lt;getter&gt;&gt;+description:string" style="text;align=left;verticalAlign=top;spacingLeft=4;spacingRight=4;overflow=hidden;rotatable=0;points=[[0,0.5],[1,0.5]];portConstraint=eastwest;" parent="FaiDNbWziGu28Ss7Wq-9-14" vertex="1">
          <mxGeometry y="130" width="380" height="26" as="geometry" />
        </mxCell>
        <mxCell id="FaiDNbWziGu28Ss7Wq-9-25" value="&lt;&lt;setter&gt;&gt;+description:string" style="text;align=left;verticalAlign=top;spacingLeft=4;spacingRight=4;overflow=hidden;rotatable=0;points=[[0,0.5],[1,0.5]];portConstraint=eastwest;rounded=0;shadow=0;html=0;" parent="FaiDNbWziGu28Ss7Wq-9-14" vertex="1">
          <mxGeometry y="156" width="380" height="26" as="geometry" />
        </mxCell>
        <mxCell id="FaiDNbWziGu28Ss7Wq-9-22" value="&lt;&lt;getter&gt;&gt;+image:byte[]" style="text;align=left;verticalAlign=top;spacingLeft=4;spacingRight=4;overflow=hidden;rotatable=0;points=[[0,0.5],[1,0.5]];portConstraint=eastwest;" parent="FaiDNbWziGu28Ss7Wq-9-14" vertex="1">
          <mxGeometry y="182" width="380" height="26" as="geometry" />
        </mxCell>
        <mxCell id="FaiDNbWziGu28Ss7Wq-9-23" value="&lt;&lt;setter&gt;&gt;+image:byte[]" style="text;align=left;verticalAlign=top;spacingLeft=4;spacingRight=4;overflow=hidden;rotatable=0;points=[[0,0.5],[1,0.5]];portConstraint=eastwest;rounded=0;shadow=0;html=0;" parent="FaiDNbWziGu28Ss7Wq-9-14" vertex="1">
          <mxGeometry y="208" width="380" height="26" as="geometry" />
        </mxCell>
        <mxCell id="FaiDNbWziGu28Ss7Wq-9-26" value="&lt;&lt;setter&gt;&gt;+inStock:bool" style="text;align=left;verticalAlign=top;spacingLeft=4;spacingRight=4;overflow=hidden;rotatable=0;points=[[0,0.5],[1,0.5]];portConstraint=eastwest;rounded=0;shadow=0;html=0;" parent="FaiDNbWziGu28Ss7Wq-9-14" vertex="1">
          <mxGeometry y="234" width="380" height="26" as="geometry" />
        </mxCell>
        <mxCell id="FaiDNbWziGu28Ss7Wq-9-27" value="&lt;&lt;getter&gt;&gt;+inStock:bool" style="text;align=left;verticalAlign=top;spacingLeft=4;spacingRight=4;overflow=hidden;rotatable=0;points=[[0,0.5],[1,0.5]];portConstraint=eastwest;" parent="FaiDNbWziGu28Ss7Wq-9-14" vertex="1">
          <mxGeometry y="260" width="380" height="26" as="geometry" />
        </mxCell>
        <mxCell id="FaiDNbWziGu28Ss7Wq-9-17" value="" style="line;html=1;strokeWidth=1;align=left;verticalAlign=middle;spacingTop=-1;spacingLeft=3;spacingRight=3;rotatable=0;labelPosition=right;points=[];portConstraint=eastwest;" parent="FaiDNbWziGu28Ss7Wq-9-14" vertex="1">
          <mxGeometry y="286" width="380" height="8" as="geometry" />
        </mxCell>
        <mxCell id="FaiDNbWziGu28Ss7Wq-9-18" value="&lt;&lt;constructor&gt;&gt;+ProductModel  (string name, string description,&#xa;byte[] image, double price, bool inStock, PizzaCategories category)" style="text;align=left;verticalAlign=top;spacingLeft=4;spacingRight=4;overflow=hidden;rotatable=0;points=[[0,0.5],[1,0.5]];portConstraint=eastwest;" parent="FaiDNbWziGu28Ss7Wq-9-14" vertex="1">
          <mxGeometry y="294" width="380" height="42" as="geometry" />
        </mxCell>
        <mxCell id="FaiDNbWziGu28Ss7Wq-9-19" value="+Create(string name, string description,&#xa;byte[] image, double price, bool inStock, &#xa;PizzaCategories category):Result&lt;ProductModel&gt;" style="text;align=left;verticalAlign=top;spacingLeft=4;spacingRight=4;overflow=hidden;rotatable=0;points=[[0,0.5],[1,0.5]];portConstraint=eastwest;" parent="FaiDNbWziGu28Ss7Wq-9-14" vertex="1">
          <mxGeometry y="336" width="380" height="50" as="geometry" />
        </mxCell>
        <mxCell id="FaiDNbWziGu28Ss7Wq-9-28" value="-ConvertImageToByteArray(string imagePath):byte[]" style="text;align=left;verticalAlign=top;spacingLeft=4;spacingRight=4;overflow=hidden;rotatable=0;points=[[0,0.5],[1,0.5]];portConstraint=eastwest;" parent="FaiDNbWziGu28Ss7Wq-9-14" vertex="1">
          <mxGeometry y="386" width="380" height="34" as="geometry" />
        </mxCell>
        <mxCell id="FaiDNbWziGu28Ss7Wq-9-33" value="+UserModel" style="swimlane;fontStyle=0;align=center;verticalAlign=top;childLayout=stackLayout;horizontal=1;startSize=26;horizontalStack=0;resizeParent=1;resizeLast=0;collapsible=1;marginBottom=0;rounded=0;shadow=0;strokeWidth=1;" parent="1" vertex="1">
          <mxGeometry x="2170" y="180" width="260" height="400" as="geometry">
            <mxRectangle x="230" y="140" width="160" height="26" as="alternateBounds" />
          </mxGeometry>
        </mxCell>
        <mxCell id="FaiDNbWziGu28Ss7Wq-9-34" value="&lt;&lt;getter&gt;&gt;+user_id:Guid" style="text;align=left;verticalAlign=top;spacingLeft=4;spacingRight=4;overflow=hidden;rotatable=0;points=[[0,0.5],[1,0.5]];portConstraint=eastwest;" parent="FaiDNbWziGu28Ss7Wq-9-33" vertex="1">
          <mxGeometry y="26" width="260" height="26" as="geometry" />
        </mxCell>
        <mxCell id="FaiDNbWziGu28Ss7Wq-9-35" value="&lt;&lt;setter&gt;&gt;+user_id:Guid" style="text;align=left;verticalAlign=top;spacingLeft=4;spacingRight=4;overflow=hidden;rotatable=0;points=[[0,0.5],[1,0.5]];portConstraint=eastwest;rounded=0;shadow=0;html=0;" parent="FaiDNbWziGu28Ss7Wq-9-33" vertex="1">
          <mxGeometry y="52" width="260" height="26" as="geometry" />
        </mxCell>
        <mxCell id="FaiDNbWziGu28Ss7Wq-9-41" value="&lt;&lt;getter&gt;&gt;+name:string" style="text;align=left;verticalAlign=top;spacingLeft=4;spacingRight=4;overflow=hidden;rotatable=0;points=[[0,0.5],[1,0.5]];portConstraint=eastwest;" parent="FaiDNbWziGu28Ss7Wq-9-33" vertex="1">
          <mxGeometry y="78" width="260" height="26" as="geometry" />
        </mxCell>
        <mxCell id="FaiDNbWziGu28Ss7Wq-9-42" value="&lt;&lt;setter&gt;&gt;+name:string" style="text;align=left;verticalAlign=top;spacingLeft=4;spacingRight=4;overflow=hidden;rotatable=0;points=[[0,0.5],[1,0.5]];portConstraint=eastwest;rounded=0;shadow=0;html=0;" parent="FaiDNbWziGu28Ss7Wq-9-33" vertex="1">
          <mxGeometry y="104" width="260" height="26" as="geometry" />
        </mxCell>
        <mxCell id="FaiDNbWziGu28Ss7Wq-9-44" value="&lt;&lt;getter&gt;&gt;+surname:string" style="text;align=left;verticalAlign=top;spacingLeft=4;spacingRight=4;overflow=hidden;rotatable=0;points=[[0,0.5],[1,0.5]];portConstraint=eastwest;" parent="FaiDNbWziGu28Ss7Wq-9-33" vertex="1">
          <mxGeometry y="130" width="260" height="26" as="geometry" />
        </mxCell>
        <mxCell id="FaiDNbWziGu28Ss7Wq-9-43" value="&lt;&lt;setter&gt;&gt;+surname:string" style="text;align=left;verticalAlign=top;spacingLeft=4;spacingRight=4;overflow=hidden;rotatable=0;points=[[0,0.5],[1,0.5]];portConstraint=eastwest;rounded=0;shadow=0;html=0;" parent="FaiDNbWziGu28Ss7Wq-9-33" vertex="1">
          <mxGeometry y="156" width="260" height="26" as="geometry" />
        </mxCell>
        <mxCell id="FaiDNbWziGu28Ss7Wq-9-45" value="&lt;&lt;getter&gt;&gt;+email:string" style="text;align=left;verticalAlign=top;spacingLeft=4;spacingRight=4;overflow=hidden;rotatable=0;points=[[0,0.5],[1,0.5]];portConstraint=eastwest;" parent="FaiDNbWziGu28Ss7Wq-9-33" vertex="1">
          <mxGeometry y="182" width="260" height="26" as="geometry" />
        </mxCell>
        <mxCell id="FaiDNbWziGu28Ss7Wq-9-46" value="&lt;&lt;setter&gt;&gt;+email:string" style="text;align=left;verticalAlign=top;spacingLeft=4;spacingRight=4;overflow=hidden;rotatable=0;points=[[0,0.5],[1,0.5]];portConstraint=eastwest;rounded=0;shadow=0;html=0;" parent="FaiDNbWziGu28Ss7Wq-9-33" vertex="1">
          <mxGeometry y="208" width="260" height="26" as="geometry" />
        </mxCell>
        <mxCell id="FaiDNbWziGu28Ss7Wq-9-48" value="&lt;&lt;getter&gt;&gt;+password:string" style="text;align=left;verticalAlign=top;spacingLeft=4;spacingRight=4;overflow=hidden;rotatable=0;points=[[0,0.5],[1,0.5]];portConstraint=eastwest;" parent="FaiDNbWziGu28Ss7Wq-9-33" vertex="1">
          <mxGeometry y="234" width="260" height="26" as="geometry" />
        </mxCell>
        <mxCell id="FaiDNbWziGu28Ss7Wq-9-47" value="&lt;&lt;setter&gt;&gt;+password:string" style="text;align=left;verticalAlign=top;spacingLeft=4;spacingRight=4;overflow=hidden;rotatable=0;points=[[0,0.5],[1,0.5]];portConstraint=eastwest;rounded=0;shadow=0;html=0;" parent="FaiDNbWziGu28Ss7Wq-9-33" vertex="1">
          <mxGeometry y="260" width="260" height="26" as="geometry" />
        </mxCell>
        <mxCell id="FaiDNbWziGu28Ss7Wq-9-50" value="&lt;&lt;getter&gt;&gt;+role:AppRole" style="text;align=left;verticalAlign=top;spacingLeft=4;spacingRight=4;overflow=hidden;rotatable=0;points=[[0,0.5],[1,0.5]];portConstraint=eastwest;" parent="FaiDNbWziGu28Ss7Wq-9-33" vertex="1">
          <mxGeometry y="286" width="260" height="26" as="geometry" />
        </mxCell>
        <mxCell id="FaiDNbWziGu28Ss7Wq-9-49" value="&lt;&lt;setter&gt;&gt;+role:AppRole" style="text;align=left;verticalAlign=top;spacingLeft=4;spacingRight=4;overflow=hidden;rotatable=0;points=[[0,0.5],[1,0.5]];portConstraint=eastwest;rounded=0;shadow=0;html=0;" parent="FaiDNbWziGu28Ss7Wq-9-33" vertex="1">
          <mxGeometry y="312" width="260" height="26" as="geometry" />
        </mxCell>
        <mxCell id="FaiDNbWziGu28Ss7Wq-9-36" value="" style="line;html=1;strokeWidth=1;align=left;verticalAlign=middle;spacingTop=-1;spacingLeft=3;spacingRight=3;rotatable=0;labelPosition=right;points=[];portConstraint=eastwest;" parent="FaiDNbWziGu28Ss7Wq-9-33" vertex="1">
          <mxGeometry y="338" width="260" height="8" as="geometry" />
        </mxCell>
        <mxCell id="FaiDNbWziGu28Ss7Wq-9-38" value="+Login():Guid" style="text;align=left;verticalAlign=top;spacingLeft=4;spacingRight=4;overflow=hidden;rotatable=0;points=[[0,0.5],[1,0.5]];portConstraint=eastwest;" parent="FaiDNbWziGu28Ss7Wq-9-33" vertex="1">
          <mxGeometry y="346" width="260" height="26" as="geometry" />
        </mxCell>
        <mxCell id="FaiDNbWziGu28Ss7Wq-9-39" value="+SignUp():Guid" style="text;align=left;verticalAlign=top;spacingLeft=4;spacingRight=4;overflow=hidden;rotatable=0;points=[[0,0.5],[1,0.5]];portConstraint=eastwest;" parent="FaiDNbWziGu28Ss7Wq-9-33" vertex="1">
          <mxGeometry y="372" width="260" height="26" as="geometry" />
        </mxCell>
        <mxCell id="FaiDNbWziGu28Ss7Wq-9-52" value="+UserRepository" style="swimlane;fontStyle=0;align=center;verticalAlign=top;childLayout=stackLayout;horizontal=1;startSize=26;horizontalStack=0;resizeParent=1;resizeLast=0;collapsible=1;marginBottom=0;rounded=0;shadow=0;strokeWidth=1;" parent="1" vertex="1">
          <mxGeometry x="2550" y="180" width="360" height="140" as="geometry">
            <mxRectangle x="230" y="140" width="160" height="26" as="alternateBounds" />
          </mxGeometry>
        </mxCell>
        <mxCell id="FaiDNbWziGu28Ss7Wq-9-53" value="- _connectionString:string" style="text;align=left;verticalAlign=top;spacingLeft=4;spacingRight=4;overflow=hidden;rotatable=0;points=[[0,0.5],[1,0.5]];portConstraint=eastwest;" parent="FaiDNbWziGu28Ss7Wq-9-52" vertex="1">
          <mxGeometry y="26" width="360" height="26" as="geometry" />
        </mxCell>
        <mxCell id="FaiDNbWziGu28Ss7Wq-9-65" value="" style="line;html=1;strokeWidth=1;align=left;verticalAlign=middle;spacingTop=-1;spacingLeft=3;spacingRight=3;rotatable=0;labelPosition=right;points=[];portConstraint=eastwest;" parent="FaiDNbWziGu28Ss7Wq-9-52" vertex="1">
          <mxGeometry y="52" width="360" height="8" as="geometry" />
        </mxCell>
        <mxCell id="FaiDNbWziGu28Ss7Wq-9-68" value="&lt;&lt;constructor&gt;&gt;+UserRepository(string connectionString)" style="text;align=left;verticalAlign=top;spacingLeft=4;spacingRight=4;overflow=hidden;rotatable=0;points=[[0,0.5],[1,0.5]];portConstraint=eastwest;" parent="FaiDNbWziGu28Ss7Wq-9-52" vertex="1">
          <mxGeometry y="60" width="360" height="26" as="geometry" />
        </mxCell>
        <mxCell id="FaiDNbWziGu28Ss7Wq-9-66" value="+Login(string email, string password):Result&lt;Guid&gt;" style="text;align=left;verticalAlign=top;spacingLeft=4;spacingRight=4;overflow=hidden;rotatable=0;points=[[0,0.5],[1,0.5]];portConstraint=eastwest;" parent="FaiDNbWziGu28Ss7Wq-9-52" vertex="1">
          <mxGeometry y="86" width="360" height="26" as="geometry" />
        </mxCell>
        <mxCell id="FaiDNbWziGu28Ss7Wq-9-67" value="+SignUp(AppRoles role, UserModel):Result&lt;Guid&gt;" style="text;align=left;verticalAlign=top;spacingLeft=4;spacingRight=4;overflow=hidden;rotatable=0;points=[[0,0.5],[1,0.5]];portConstraint=eastwest;" parent="FaiDNbWziGu28Ss7Wq-9-52" vertex="1">
          <mxGeometry y="112" width="360" height="26" as="geometry" />
        </mxCell>
        <mxCell id="FaiDNbWziGu28Ss7Wq-9-69" value="" style="ellipse;html=1;shape=startState;" parent="1" vertex="1">
          <mxGeometry x="1970" y="940" width="30" height="30" as="geometry" />
        </mxCell>
        <mxCell id="FaiDNbWziGu28Ss7Wq-9-70" value="" style="edgeStyle=orthogonalEdgeStyle;html=1;verticalAlign=bottom;endArrow=open;endSize=8;rounded=0;" parent="1" source="FaiDNbWziGu28Ss7Wq-9-69" edge="1">
          <mxGeometry relative="1" as="geometry">
            <mxPoint x="1985" y="1030" as="targetPoint" />
          </mxGeometry>
        </mxCell>
        <mxCell id="FaiDNbWziGu28Ss7Wq-9-71" value="Пользователь" style="text;html=1;align=center;verticalAlign=middle;resizable=0;points=[];autosize=1;strokeColor=none;fillColor=none;" parent="1" vertex="1">
          <mxGeometry x="1935" y="910" width="100" height="30" as="geometry" />
        </mxCell>
        <mxCell id="FaiDNbWziGu28Ss7Wq-9-72" value="Авторизация" style="html=1;whiteSpace=wrap;" parent="1" vertex="1">
          <mxGeometry x="1930" y="1030" width="110" height="50" as="geometry" />
        </mxCell>
        <mxCell id="FaiDNbWziGu28Ss7Wq-9-77" style="edgeStyle=orthogonalEdgeStyle;rounded=0;orthogonalLoop=1;jettySize=auto;html=1;exitX=1;exitY=0.5;exitDx=0;exitDy=0;exitPerimeter=0;entryX=0.5;entryY=0;entryDx=0;entryDy=0;" parent="1" source="FaiDNbWziGu28Ss7Wq-9-73" target="FaiDNbWziGu28Ss7Wq-9-75" edge="1">
          <mxGeometry relative="1" as="geometry" />
        </mxCell>
        <mxCell id="FaiDNbWziGu28Ss7Wq-9-78" style="edgeStyle=orthogonalEdgeStyle;rounded=0;orthogonalLoop=1;jettySize=auto;html=1;exitX=0;exitY=0.5;exitDx=0;exitDy=0;exitPerimeter=0;entryX=0.5;entryY=0;entryDx=0;entryDy=0;" parent="1" source="FaiDNbWziGu28Ss7Wq-9-73" target="FaiDNbWziGu28Ss7Wq-9-76" edge="1">
          <mxGeometry relative="1" as="geometry" />
        </mxCell>
        <mxCell id="FaiDNbWziGu28Ss7Wq-9-73" value="Пользователь авторизован" style="strokeWidth=2;html=1;shape=mxgraph.flowchart.decision;whiteSpace=wrap;" parent="1" vertex="1">
          <mxGeometry x="1911.25" y="1140" width="147.5" height="100" as="geometry" />
        </mxCell>
        <mxCell id="FaiDNbWziGu28Ss7Wq-9-74" style="edgeStyle=orthogonalEdgeStyle;rounded=0;orthogonalLoop=1;jettySize=auto;html=1;exitX=0.5;exitY=1;exitDx=0;exitDy=0;entryX=0.5;entryY=0;entryDx=0;entryDy=0;entryPerimeter=0;" parent="1" source="FaiDNbWziGu28Ss7Wq-9-72" target="FaiDNbWziGu28Ss7Wq-9-73" edge="1">
          <mxGeometry relative="1" as="geometry" />
        </mxCell>
        <mxCell id="FaiDNbWziGu28Ss7Wq-9-81" style="edgeStyle=orthogonalEdgeStyle;rounded=0;orthogonalLoop=1;jettySize=auto;html=1;exitX=0;exitY=0.5;exitDx=0;exitDy=0;entryX=1;entryY=0.5;entryDx=0;entryDy=0;" parent="1" source="FaiDNbWziGu28Ss7Wq-9-75" target="FaiDNbWziGu28Ss7Wq-9-76" edge="1">
          <mxGeometry relative="1" as="geometry" />
        </mxCell>
        <mxCell id="FaiDNbWziGu28Ss7Wq-9-75" value="Регистрация" style="html=1;whiteSpace=wrap;" parent="1" vertex="1">
          <mxGeometry x="2160" y="1310" width="110" height="50" as="geometry" />
        </mxCell>
        <mxCell id="FaiDNbWziGu28Ss7Wq-9-83" style="edgeStyle=orthogonalEdgeStyle;rounded=0;orthogonalLoop=1;jettySize=auto;html=1;exitX=0.5;exitY=1;exitDx=0;exitDy=0;entryX=0.5;entryY=0;entryDx=0;entryDy=0;" parent="1" source="FaiDNbWziGu28Ss7Wq-9-76" target="FaiDNbWziGu28Ss7Wq-9-82" edge="1">
          <mxGeometry relative="1" as="geometry" />
        </mxCell>
        <mxCell id="FaiDNbWziGu28Ss7Wq-9-76" value="Выбор продукта в каталоге" style="html=1;whiteSpace=wrap;" parent="1" vertex="1">
          <mxGeometry x="1740" y="1310" width="110" height="50" as="geometry" />
        </mxCell>
        <mxCell id="FaiDNbWziGu28Ss7Wq-9-79" value="Да" style="text;html=1;align=center;verticalAlign=middle;resizable=0;points=[];autosize=1;strokeColor=none;fillColor=none;" parent="1" vertex="1">
          <mxGeometry x="1800" y="1160" width="40" height="30" as="geometry" />
        </mxCell>
        <mxCell id="FaiDNbWziGu28Ss7Wq-9-80" value="Нет" style="text;html=1;align=center;verticalAlign=middle;resizable=0;points=[];autosize=1;strokeColor=none;fillColor=none;" parent="1" vertex="1">
          <mxGeometry x="2170" y="1160" width="40" height="30" as="geometry" />
        </mxCell>
        <mxCell id="FaiDNbWziGu28Ss7Wq-9-84" style="edgeStyle=orthogonalEdgeStyle;rounded=0;orthogonalLoop=1;jettySize=auto;html=1;exitX=0.5;exitY=1;exitDx=0;exitDy=0;" parent="1" source="FaiDNbWziGu28Ss7Wq-9-82" edge="1">
          <mxGeometry relative="1" as="geometry">
            <mxPoint x="1795.166666666667" y="1580" as="targetPoint" />
          </mxGeometry>
        </mxCell>
        <mxCell id="FaiDNbWziGu28Ss7Wq-9-82" value="Добавление в корзину" style="html=1;whiteSpace=wrap;" parent="1" vertex="1">
          <mxGeometry x="1740" y="1450" width="110" height="50" as="geometry" />
        </mxCell>
        <mxCell id="FaiDNbWziGu28Ss7Wq-9-85" value="Оплата" style="html=1;whiteSpace=wrap;" parent="1" vertex="1">
          <mxGeometry x="1740" y="1580" width="110" height="50" as="geometry" />
        </mxCell>
        <mxCell id="FaiDNbWziGu28Ss7Wq-9-86" value="Менеджер" style="shape=umlActor;verticalLabelPosition=bottom;verticalAlign=top;html=1;" parent="1" vertex="1">
          <mxGeometry x="1810" y="2060" width="30" height="60" as="geometry" />
        </mxCell>
        <mxCell id="FaiDNbWziGu28Ss7Wq-9-88" value="Одобрить регистарцию персонала" style="ellipse;whiteSpace=wrap;html=1;" parent="1" vertex="1">
          <mxGeometry x="1960" y="1930" width="140" height="70" as="geometry" />
        </mxCell>
        <mxCell id="FaiDNbWziGu28Ss7Wq-9-89" value="Изменить продукт" style="ellipse;whiteSpace=wrap;html=1;" parent="1" vertex="1">
          <mxGeometry x="1755" y="1890" width="140" height="70" as="geometry" />
        </mxCell>
        <mxCell id="FaiDNbWziGu28Ss7Wq-9-90" value="Добавить продукт" style="ellipse;whiteSpace=wrap;html=1;" parent="1" vertex="1">
          <mxGeometry x="1550" y="1940" width="140" height="70" as="geometry" />
        </mxCell>
        <mxCell id="FaiDNbWziGu28Ss7Wq-9-91" value="Удалить продукт" style="ellipse;whiteSpace=wrap;html=1;" parent="1" vertex="1">
          <mxGeometry x="1490" y="2070" width="140" height="70" as="geometry" />
        </mxCell>
        <mxCell id="FaiDNbWziGu28Ss7Wq-9-94" value="Одобрить регистарцию персонала" style="ellipse;whiteSpace=wrap;html=1;" parent="1" vertex="1">
          <mxGeometry x="1980" y="2080" width="140" height="70" as="geometry" />
        </mxCell>
        <mxCell id="FaiDNbWziGu28Ss7Wq-9-100" value="" style="edgeStyle=none;orthogonalLoop=1;jettySize=auto;html=1;rounded=0;entryX=0;entryY=0.5;entryDx=0;entryDy=0;" parent="1" target="FaiDNbWziGu28Ss7Wq-9-94" edge="1">
          <mxGeometry width="100" relative="1" as="geometry">
            <mxPoint x="1850" y="2090" as="sourcePoint" />
            <mxPoint x="1920" y="2100" as="targetPoint" />
            <Array as="points" />
          </mxGeometry>
        </mxCell>
        <mxCell id="FaiDNbWziGu28Ss7Wq-9-101" value="" style="edgeStyle=none;orthogonalLoop=1;jettySize=auto;html=1;rounded=0;entryX=0.095;entryY=0.789;entryDx=0;entryDy=0;entryPerimeter=0;" parent="1" target="FaiDNbWziGu28Ss7Wq-9-88" edge="1">
          <mxGeometry width="100" relative="1" as="geometry">
            <mxPoint x="1860" y="2080" as="sourcePoint" />
            <mxPoint x="1990" y="2125" as="targetPoint" />
            <Array as="points" />
          </mxGeometry>
        </mxCell>
        <mxCell id="FaiDNbWziGu28Ss7Wq-9-102" value="" style="edgeStyle=none;orthogonalLoop=1;jettySize=auto;html=1;rounded=0;entryX=0.5;entryY=1;entryDx=0;entryDy=0;" parent="1" target="FaiDNbWziGu28Ss7Wq-9-89" edge="1">
          <mxGeometry width="100" relative="1" as="geometry">
            <mxPoint x="1825" y="2050" as="sourcePoint" />
            <mxPoint x="1983" y="1995" as="targetPoint" />
            <Array as="points" />
          </mxGeometry>
        </mxCell>
        <mxCell id="FaiDNbWziGu28Ss7Wq-9-103" value="" style="edgeStyle=none;orthogonalLoop=1;jettySize=auto;html=1;rounded=0;" parent="1" target="FaiDNbWziGu28Ss7Wq-9-90" edge="1">
          <mxGeometry width="100" relative="1" as="geometry">
            <mxPoint x="1800" y="2060" as="sourcePoint" />
            <mxPoint x="1835" y="1970" as="targetPoint" />
            <Array as="points" />
          </mxGeometry>
        </mxCell>
        <mxCell id="FaiDNbWziGu28Ss7Wq-9-104" value="" style="edgeStyle=none;orthogonalLoop=1;jettySize=auto;html=1;rounded=0;entryX=1;entryY=0.5;entryDx=0;entryDy=0;" parent="1" target="FaiDNbWziGu28Ss7Wq-9-91" edge="1">
          <mxGeometry width="100" relative="1" as="geometry">
            <mxPoint x="1790" y="2080" as="sourcePoint" />
            <mxPoint x="1681" y="2009" as="targetPoint" />
            <Array as="points" />
          </mxGeometry>
        </mxCell>
        <mxCell id="FaiDNbWziGu28Ss7Wq-9-105" value="Продавец" style="shape=umlActor;verticalLabelPosition=bottom;verticalAlign=top;html=1;" parent="1" vertex="1">
          <mxGeometry x="2500" y="2050" width="30" height="60" as="geometry" />
        </mxCell>
        <mxCell id="FaiDNbWziGu28Ss7Wq-9-106" value="Отклонить заказ&lt;br&gt;/&lt;br&gt;Уточнить информацию" style="ellipse;whiteSpace=wrap;html=1;" parent="1" vertex="1">
          <mxGeometry x="2650" y="1920" width="170" height="80" as="geometry" />
        </mxCell>
        <mxCell id="FaiDNbWziGu28Ss7Wq-9-107" value="Выдать заказ" style="ellipse;whiteSpace=wrap;html=1;" parent="1" vertex="1">
          <mxGeometry x="2445" y="1880" width="140" height="70" as="geometry" />
        </mxCell>
        <mxCell id="FaiDNbWziGu28Ss7Wq-9-108" value="Принять заказ" style="ellipse;whiteSpace=wrap;html=1;" parent="1" vertex="1">
          <mxGeometry x="2240" y="1930" width="140" height="70" as="geometry" />
        </mxCell>
        <mxCell id="FaiDNbWziGu28Ss7Wq-9-109" value="Изнить статус заказа" style="ellipse;whiteSpace=wrap;html=1;" parent="1" vertex="1">
          <mxGeometry x="2180" y="2060" width="140" height="70" as="geometry" />
        </mxCell>
        <mxCell id="FaiDNbWziGu28Ss7Wq-9-112" value="" style="edgeStyle=none;orthogonalLoop=1;jettySize=auto;html=1;rounded=0;entryX=0.095;entryY=0.789;entryDx=0;entryDy=0;entryPerimeter=0;" parent="1" target="FaiDNbWziGu28Ss7Wq-9-106" edge="1">
          <mxGeometry width="100" relative="1" as="geometry">
            <mxPoint x="2550" y="2070" as="sourcePoint" />
            <mxPoint x="2680" y="2115" as="targetPoint" />
            <Array as="points" />
          </mxGeometry>
        </mxCell>
        <mxCell id="FaiDNbWziGu28Ss7Wq-9-113" value="" style="edgeStyle=none;orthogonalLoop=1;jettySize=auto;html=1;rounded=0;entryX=0.5;entryY=1;entryDx=0;entryDy=0;" parent="1" target="FaiDNbWziGu28Ss7Wq-9-107" edge="1">
          <mxGeometry width="100" relative="1" as="geometry">
            <mxPoint x="2515" y="2040" as="sourcePoint" />
            <mxPoint x="2673" y="1985" as="targetPoint" />
            <Array as="points" />
          </mxGeometry>
        </mxCell>
        <mxCell id="FaiDNbWziGu28Ss7Wq-9-114" value="" style="edgeStyle=none;orthogonalLoop=1;jettySize=auto;html=1;rounded=0;" parent="1" target="FaiDNbWziGu28Ss7Wq-9-108" edge="1">
          <mxGeometry width="100" relative="1" as="geometry">
            <mxPoint x="2490" y="2050" as="sourcePoint" />
            <mxPoint x="2525" y="1960" as="targetPoint" />
            <Array as="points" />
          </mxGeometry>
        </mxCell>
        <mxCell id="FaiDNbWziGu28Ss7Wq-9-115" value="" style="edgeStyle=none;orthogonalLoop=1;jettySize=auto;html=1;rounded=0;entryX=1;entryY=0.5;entryDx=0;entryDy=0;" parent="1" target="FaiDNbWziGu28Ss7Wq-9-109" edge="1">
          <mxGeometry width="100" relative="1" as="geometry">
            <mxPoint x="2480" y="2070" as="sourcePoint" />
            <mxPoint x="2371" y="1999" as="targetPoint" />
            <Array as="points" />
          </mxGeometry>
        </mxCell>
        <mxCell id="FaiDNbWziGu28Ss7Wq-9-116" value="Курьер" style="shape=umlActor;verticalLabelPosition=bottom;verticalAlign=top;html=1;" parent="1" vertex="1">
          <mxGeometry x="2520" y="2440" width="30" height="60" as="geometry" />
        </mxCell>
        <mxCell id="FaiDNbWziGu28Ss7Wq-9-118" value="Взять заказ на доставку" style="ellipse;whiteSpace=wrap;html=1;" parent="1" vertex="1">
          <mxGeometry x="2465" y="2270" width="140" height="70" as="geometry" />
        </mxCell>
        <mxCell id="FaiDNbWziGu28Ss7Wq-9-119" value="Доставить заказ" style="ellipse;whiteSpace=wrap;html=1;" parent="1" vertex="1">
          <mxGeometry x="2260" y="2320" width="140" height="70" as="geometry" />
        </mxCell>
        <mxCell id="FaiDNbWziGu28Ss7Wq-9-120" value="Забрать готовый заказ" style="ellipse;whiteSpace=wrap;html=1;" parent="1" vertex="1">
          <mxGeometry x="2200" y="2450" width="140" height="70" as="geometry" />
        </mxCell>
        <mxCell id="FaiDNbWziGu28Ss7Wq-9-122" value="" style="edgeStyle=none;orthogonalLoop=1;jettySize=auto;html=1;rounded=0;entryX=0.5;entryY=1;entryDx=0;entryDy=0;" parent="1" target="FaiDNbWziGu28Ss7Wq-9-118" edge="1">
          <mxGeometry width="100" relative="1" as="geometry">
            <mxPoint x="2535" y="2430" as="sourcePoint" />
            <mxPoint x="2693" y="2375" as="targetPoint" />
            <Array as="points" />
          </mxGeometry>
        </mxCell>
        <mxCell id="FaiDNbWziGu28Ss7Wq-9-123" value="" style="edgeStyle=none;orthogonalLoop=1;jettySize=auto;html=1;rounded=0;" parent="1" target="FaiDNbWziGu28Ss7Wq-9-119" edge="1">
          <mxGeometry width="100" relative="1" as="geometry">
            <mxPoint x="2510" y="2440" as="sourcePoint" />
            <mxPoint x="2545" y="2350" as="targetPoint" />
            <Array as="points" />
          </mxGeometry>
        </mxCell>
        <mxCell id="FaiDNbWziGu28Ss7Wq-9-124" value="" style="edgeStyle=none;orthogonalLoop=1;jettySize=auto;html=1;rounded=0;entryX=1;entryY=0.5;entryDx=0;entryDy=0;" parent="1" target="FaiDNbWziGu28Ss7Wq-9-120" edge="1">
          <mxGeometry width="100" relative="1" as="geometry">
            <mxPoint x="2500" y="2460" as="sourcePoint" />
            <mxPoint x="2391" y="2389" as="targetPoint" />
            <Array as="points" />
          </mxGeometry>
        </mxCell>
        <mxCell id="FaiDNbWziGu28Ss7Wq-9-125" value="Пользователь" style="shape=umlActor;verticalLabelPosition=bottom;verticalAlign=top;html=1;" parent="1" vertex="1">
          <mxGeometry x="1810" y="2430" width="30" height="60" as="geometry" />
        </mxCell>
        <mxCell id="FaiDNbWziGu28Ss7Wq-9-126" value="Изменить адрес&lt;br&gt;доставки / ресторана" style="ellipse;whiteSpace=wrap;html=1;" parent="1" vertex="1">
          <mxGeometry x="1960" y="2300" width="140" height="70" as="geometry" />
        </mxCell>
        <mxCell id="FaiDNbWziGu28Ss7Wq-9-127" value="Очистить корзину" style="ellipse;whiteSpace=wrap;html=1;" parent="1" vertex="1">
          <mxGeometry x="1755" y="2260" width="140" height="70" as="geometry" />
        </mxCell>
        <mxCell id="FaiDNbWziGu28Ss7Wq-9-128" value="Добавить в корзину" style="ellipse;whiteSpace=wrap;html=1;" parent="1" vertex="1">
          <mxGeometry x="1550" y="2310" width="140" height="70" as="geometry" />
        </mxCell>
        <mxCell id="FaiDNbWziGu28Ss7Wq-9-129" value="Выбрать продукт" style="ellipse;whiteSpace=wrap;html=1;" parent="1" vertex="1">
          <mxGeometry x="1490" y="2440" width="140" height="70" as="geometry" />
        </mxCell>
        <mxCell id="FaiDNbWziGu28Ss7Wq-9-130" value="Оплатить" style="ellipse;whiteSpace=wrap;html=1;" parent="1" vertex="1">
          <mxGeometry x="1980" y="2450" width="140" height="70" as="geometry" />
        </mxCell>
        <mxCell id="FaiDNbWziGu28Ss7Wq-9-131" value="" style="edgeStyle=none;orthogonalLoop=1;jettySize=auto;html=1;rounded=0;entryX=0;entryY=0.5;entryDx=0;entryDy=0;" parent="1" target="FaiDNbWziGu28Ss7Wq-9-130" edge="1">
          <mxGeometry width="100" relative="1" as="geometry">
            <mxPoint x="1850" y="2460" as="sourcePoint" />
            <mxPoint x="1920" y="2470" as="targetPoint" />
            <Array as="points" />
          </mxGeometry>
        </mxCell>
        <mxCell id="FaiDNbWziGu28Ss7Wq-9-132" value="" style="edgeStyle=none;orthogonalLoop=1;jettySize=auto;html=1;rounded=0;entryX=0.095;entryY=0.789;entryDx=0;entryDy=0;entryPerimeter=0;" parent="1" target="FaiDNbWziGu28Ss7Wq-9-126" edge="1">
          <mxGeometry width="100" relative="1" as="geometry">
            <mxPoint x="1860" y="2450" as="sourcePoint" />
            <mxPoint x="1990" y="2495" as="targetPoint" />
            <Array as="points" />
          </mxGeometry>
        </mxCell>
        <mxCell id="FaiDNbWziGu28Ss7Wq-9-133" value="" style="edgeStyle=none;orthogonalLoop=1;jettySize=auto;html=1;rounded=0;entryX=0.5;entryY=1;entryDx=0;entryDy=0;" parent="1" target="FaiDNbWziGu28Ss7Wq-9-127" edge="1">
          <mxGeometry width="100" relative="1" as="geometry">
            <mxPoint x="1825" y="2420" as="sourcePoint" />
            <mxPoint x="1983" y="2365" as="targetPoint" />
            <Array as="points" />
          </mxGeometry>
        </mxCell>
        <mxCell id="FaiDNbWziGu28Ss7Wq-9-134" value="" style="edgeStyle=none;orthogonalLoop=1;jettySize=auto;html=1;rounded=0;" parent="1" target="FaiDNbWziGu28Ss7Wq-9-128" edge="1">
          <mxGeometry width="100" relative="1" as="geometry">
            <mxPoint x="1800" y="2430" as="sourcePoint" />
            <mxPoint x="1835" y="2340" as="targetPoint" />
            <Array as="points" />
          </mxGeometry>
        </mxCell>
        <mxCell id="FaiDNbWziGu28Ss7Wq-9-135" value="" style="edgeStyle=none;orthogonalLoop=1;jettySize=auto;html=1;rounded=0;entryX=1;entryY=0.5;entryDx=0;entryDy=0;" parent="1" target="FaiDNbWziGu28Ss7Wq-9-129" edge="1">
          <mxGeometry width="100" relative="1" as="geometry">
            <mxPoint x="1790" y="2450" as="sourcePoint" />
            <mxPoint x="1681" y="2379" as="targetPoint" />
            <Array as="points" />
          </mxGeometry>
        </mxCell>
        <mxCell id="FaiDNbWziGu28Ss7Wq-9-136" value="Гость" style="shape=umlActor;verticalLabelPosition=bottom;verticalAlign=top;html=1;" parent="1" vertex="1">
          <mxGeometry x="1830" y="2810" width="30" height="60" as="geometry" />
        </mxCell>
        <mxCell id="FaiDNbWziGu28Ss7Wq-9-137" value="Авторизация" style="ellipse;whiteSpace=wrap;html=1;" parent="1" vertex="1">
          <mxGeometry x="1775" y="2640" width="140" height="70" as="geometry" />
        </mxCell>
        <mxCell id="FaiDNbWziGu28Ss7Wq-9-138" value="Регистрация" style="ellipse;whiteSpace=wrap;html=1;" parent="1" vertex="1">
          <mxGeometry x="1570" y="2690" width="140" height="70" as="geometry" />
        </mxCell>
        <mxCell id="FaiDNbWziGu28Ss7Wq-9-140" value="" style="edgeStyle=none;orthogonalLoop=1;jettySize=auto;html=1;rounded=0;entryX=0.5;entryY=1;entryDx=0;entryDy=0;" parent="1" target="FaiDNbWziGu28Ss7Wq-9-137" edge="1">
          <mxGeometry width="100" relative="1" as="geometry">
            <mxPoint x="1845" y="2800" as="sourcePoint" />
            <mxPoint x="2003" y="2745" as="targetPoint" />
            <Array as="points" />
          </mxGeometry>
        </mxCell>
        <mxCell id="FaiDNbWziGu28Ss7Wq-9-141" value="" style="edgeStyle=none;orthogonalLoop=1;jettySize=auto;html=1;rounded=0;" parent="1" target="FaiDNbWziGu28Ss7Wq-9-138" edge="1">
          <mxGeometry width="100" relative="1" as="geometry">
            <mxPoint x="1820" y="2810" as="sourcePoint" />
            <mxPoint x="1855" y="2720" as="targetPoint" />
            <Array as="points" />
          </mxGeometry>
        </mxCell>
        <mxCell id="FaiDNbWziGu28Ss7Wq-9-157" style="rounded=0;orthogonalLoop=1;jettySize=auto;html=1;endArrow=none;endFill=0;dashed=1;dashPattern=8 8;" parent="1" target="FaiDNbWziGu28Ss7Wq-9-154" edge="1">
          <mxGeometry relative="1" as="geometry">
            <mxPoint x="3190" y="350" as="targetPoint" />
            <mxPoint x="3200" y="280" as="sourcePoint" />
          </mxGeometry>
        </mxCell>
        <mxCell id="FaiDNbWziGu28Ss7Wq-9-143" value="Пользователь" style="shape=umlActor;verticalLabelPosition=bottom;verticalAlign=top;html=1;" parent="1" vertex="1">
          <mxGeometry x="3190" y="189" width="30" height="60" as="geometry" />
        </mxCell>
        <mxCell id="FaiDNbWziGu28Ss7Wq-9-144" value="Форма авторизации" style="shape=umlBoundary;whiteSpace=wrap;html=1;" parent="1" vertex="1">
          <mxGeometry x="3320" y="189" width="100" height="80" as="geometry" />
        </mxCell>
        <mxCell id="FaiDNbWziGu28Ss7Wq-9-145" value="Диаграмму последовательности" style="text;whiteSpace=wrap;html=1;" parent="1" vertex="1">
          <mxGeometry x="3240" y="80" width="210" height="40" as="geometry" />
        </mxCell>
        <mxCell id="FaiDNbWziGu28Ss7Wq-9-146" value="Диаграмму классов" style="text;html=1;align=center;verticalAlign=middle;resizable=0;points=[];autosize=1;strokeColor=none;fillColor=none;" parent="1" vertex="1">
          <mxGeometry x="2130" y="80" width="130" height="30" as="geometry" />
        </mxCell>
        <mxCell id="FaiDNbWziGu28Ss7Wq-9-147" value="Диаграмму вариантов использования" style="text;html=1;align=center;verticalAlign=middle;resizable=0;points=[];autosize=1;strokeColor=none;fillColor=none;" parent="1" vertex="1">
          <mxGeometry x="2055" y="1798" width="230" height="30" as="geometry" />
        </mxCell>
        <mxCell id="FaiDNbWziGu28Ss7Wq-9-148" value="Диаграмму деятельности" style="text;html=1;align=center;verticalAlign=middle;resizable=0;points=[];autosize=1;strokeColor=none;fillColor=none;" parent="1" vertex="1">
          <mxGeometry x="1895" y="820" width="170" height="30" as="geometry" />
        </mxCell>
        <mxCell id="FaiDNbWziGu28Ss7Wq-9-150" value="&amp;lt;&amp;lt;Расширить&amp;gt;&amp;gt;&lt;span style=&quot;white-space: pre;&quot;&gt;&#x9;&lt;/span&gt;" style="endArrow=open;endSize=12;dashed=1;html=1;rounded=0;exitX=0;exitY=0.5;exitDx=0;exitDy=0;entryX=1;entryY=0.5;entryDx=0;entryDy=0;" parent="1" source="FaiDNbWziGu28Ss7Wq-9-129" target="FaiDNbWziGu28Ss7Wq-9-151" edge="1">
          <mxGeometry width="160" relative="1" as="geometry">
            <mxPoint x="1260" y="2400" as="sourcePoint" />
            <mxPoint x="1330" y="2475" as="targetPoint" />
          </mxGeometry>
        </mxCell>
        <mxCell id="FaiDNbWziGu28Ss7Wq-9-151" value="Выбрать размер&lt;br&gt;пиццы" style="ellipse;whiteSpace=wrap;html=1;" parent="1" vertex="1">
          <mxGeometry x="1180" y="2440" width="140" height="70" as="geometry" />
        </mxCell>
        <mxCell id="FaiDNbWziGu28Ss7Wq-9-154" value="" style="html=1;points=[[0,0,0,0,5],[0,1,0,0,-5],[1,0,0,0,5],[1,1,0,0,-5]];perimeter=orthogonalPerimeter;outlineConnect=0;targetShapes=umlLifeline;portConstraint=eastwest;newEdgeStyle={&quot;curved&quot;:0,&quot;rounded&quot;:0};" parent="1" vertex="1">
          <mxGeometry x="3190" y="358" width="10" height="322" as="geometry" />
        </mxCell>
        <mxCell id="FaiDNbWziGu28Ss7Wq-9-158" value="" style="html=1;points=[[0,0,0,0,5],[0,1,0,0,-5],[1,0,0,0,5],[1,1,0,0,-5]];perimeter=orthogonalPerimeter;outlineConnect=0;targetShapes=umlLifeline;portConstraint=eastwest;newEdgeStyle={&quot;curved&quot;:0,&quot;rounded&quot;:0};" parent="1" vertex="1">
          <mxGeometry x="3370" y="330" width="10" height="220" as="geometry" />
        </mxCell>
        <mxCell id="FaiDNbWziGu28Ss7Wq-9-159" value="Ввести данные &lt;br&gt;авторизации(логин, пароль)" style="html=1;verticalAlign=bottom;endArrow=block;curved=0;rounded=0;exitX=1;exitY=0;exitDx=0;exitDy=5;exitPerimeter=0;" parent="1" source="FaiDNbWziGu28Ss7Wq-9-154" target="FaiDNbWziGu28Ss7Wq-9-158" edge="1">
          <mxGeometry relative="1" as="geometry">
            <mxPoint x="3530" y="355" as="sourcePoint" />
          </mxGeometry>
        </mxCell>
        <mxCell id="FaiDNbWziGu28Ss7Wq-9-160" value="Доступ к &lt;br&gt;приложению()" style="html=1;verticalAlign=bottom;endArrow=open;dashed=1;endSize=8;curved=0;rounded=0;exitX=0;exitY=1;exitDx=0;exitDy=-5;exitPerimeter=0;" parent="1" source="FaiDNbWziGu28Ss7Wq-9-158" target="FaiDNbWziGu28Ss7Wq-9-154" edge="1">
          <mxGeometry relative="1" as="geometry">
            <mxPoint x="3530" y="425" as="targetPoint" />
            <mxPoint x="3440" y="675" as="sourcePoint" />
          </mxGeometry>
        </mxCell>
        <mxCell id="FaiDNbWziGu28Ss7Wq-9-162" value="(пока не верный вариант)" style="text;html=1;align=center;verticalAlign=middle;resizable=0;points=[];autosize=1;strokeColor=none;fillColor=none;" parent="1" vertex="1">
          <mxGeometry x="3380" y="300" width="170" height="30" as="geometry" />
        </mxCell>
        <mxCell id="FaiDNbWziGu28Ss7Wq-9-163" value="База данных" style="html=1;whiteSpace=wrap;" parent="1" vertex="1">
          <mxGeometry x="3530" y="199" width="110" height="50" as="geometry" />
        </mxCell>
        <mxCell id="FaiDNbWziGu28Ss7Wq-9-164" value="" style="edgeStyle=none;orthogonalLoop=1;jettySize=auto;html=1;rounded=0;dashed=1;dashPattern=8 8;endArrow=none;endFill=0;" parent="1" source="FaiDNbWziGu28Ss7Wq-9-158" edge="1">
          <mxGeometry width="100" relative="1" as="geometry">
            <mxPoint x="3330" y="340" as="sourcePoint" />
            <mxPoint x="3370" y="270" as="targetPoint" />
            <Array as="points" />
          </mxGeometry>
        </mxCell>
        <mxCell id="FaiDNbWziGu28Ss7Wq-9-169" value="" style="html=1;points=[[0,0,0,0,5],[0,1,0,0,-5],[1,0,0,0,5],[1,1,0,0,-5]];perimeter=orthogonalPerimeter;outlineConnect=0;targetShapes=umlLifeline;portConstraint=eastwest;newEdgeStyle={&quot;curved&quot;:0,&quot;rounded&quot;:0};" parent="1" vertex="1">
          <mxGeometry x="3580" y="420" width="10" height="80" as="geometry" />
        </mxCell>
        <mxCell id="FaiDNbWziGu28Ss7Wq-9-171" value="Результат()" style="html=1;verticalAlign=bottom;endArrow=open;dashed=1;endSize=8;curved=0;rounded=0;exitX=0;exitY=1;exitDx=0;exitDy=-5;exitPerimeter=0;" parent="1" source="FaiDNbWziGu28Ss7Wq-9-169" target="FaiDNbWziGu28Ss7Wq-9-158" edge="1">
          <mxGeometry relative="1" as="geometry">
            <mxPoint x="3410" y="495" as="targetPoint" />
            <mxPoint x="3650" y="675" as="sourcePoint" />
          </mxGeometry>
        </mxCell>
        <mxCell id="FaiDNbWziGu28Ss7Wq-9-170" value="Передача данных&lt;br&gt;(логин, пароль)" style="html=1;verticalAlign=bottom;endArrow=block;curved=0;rounded=0;" parent="1" source="FaiDNbWziGu28Ss7Wq-9-158" target="FaiDNbWziGu28Ss7Wq-9-169" edge="1">
          <mxGeometry relative="1" as="geometry">
            <mxPoint x="3410" y="363" as="sourcePoint" />
          </mxGeometry>
        </mxCell>
        <mxCell id="FaiDNbWziGu28Ss7Wq-9-172" value="" style="html=1;points=[[0,0,0,0,5],[0,1,0,0,-5],[1,0,0,0,5],[1,1,0,0,-5]];perimeter=orthogonalPerimeter;outlineConnect=0;targetShapes=umlLifeline;portConstraint=eastwest;newEdgeStyle={&quot;curved&quot;:0,&quot;rounded&quot;:0};" parent="1" vertex="1">
          <mxGeometry x="3585" y="452" width="10" height="40" as="geometry" />
        </mxCell>
        <mxCell id="FaiDNbWziGu28Ss7Wq-9-173" value="Проверка &lt;br&gt;данных(логин, пароль)" style="html=1;align=left;spacingLeft=2;endArrow=block;rounded=0;edgeStyle=orthogonalEdgeStyle;curved=0;rounded=0;" parent="1" target="FaiDNbWziGu28Ss7Wq-9-172" edge="1">
          <mxGeometry relative="1" as="geometry">
            <mxPoint x="3590" y="432" as="sourcePoint" />
            <Array as="points">
              <mxPoint x="3620" y="462" />
            </Array>
          </mxGeometry>
        </mxCell>
        <mxCell id="FaiDNbWziGu28Ss7Wq-9-174" value="" style="edgeStyle=none;orthogonalLoop=1;jettySize=auto;html=1;rounded=0;dashed=1;dashPattern=8 8;endArrow=none;endFill=0;" parent="1" source="FaiDNbWziGu28Ss7Wq-9-169" edge="1">
          <mxGeometry width="100" relative="1" as="geometry">
            <mxPoint x="3540" y="410" as="sourcePoint" />
            <mxPoint x="3580" y="260" as="targetPoint" />
            <Array as="points" />
          </mxGeometry>
        </mxCell>
        <mxCell id="FaiDNbWziGu28Ss7Wq-9-175" value="Каталог" style="html=1;whiteSpace=wrap;" parent="1" vertex="1">
          <mxGeometry x="3770" y="199" width="110" height="50" as="geometry" />
        </mxCell>
        <mxCell id="FaiDNbWziGu28Ss7Wq-9-176" value="" style="edgeStyle=none;orthogonalLoop=1;jettySize=auto;html=1;rounded=0;dashed=1;dashPattern=8 8;endArrow=none;endFill=0;" parent="1" source="FaiDNbWziGu28Ss7Wq-9-177" edge="1">
          <mxGeometry width="100" relative="1" as="geometry">
            <mxPoint x="3820" y="530" as="sourcePoint" />
            <mxPoint x="3820" y="260" as="targetPoint" />
            <Array as="points" />
          </mxGeometry>
        </mxCell>
        <mxCell id="FaiDNbWziGu28Ss7Wq-9-177" value="" style="html=1;points=[[0,0,0,0,5],[0,1,0,0,-5],[1,0,0,0,5],[1,1,0,0,-5]];perimeter=orthogonalPerimeter;outlineConnect=0;targetShapes=umlLifeline;portConstraint=eastwest;newEdgeStyle={&quot;curved&quot;:0,&quot;rounded&quot;:0};" parent="1" vertex="1">
          <mxGeometry x="3815" y="570" width="10" height="60" as="geometry" />
        </mxCell>
        <mxCell id="FaiDNbWziGu28Ss7Wq-9-180" value="Просмотр каталога()" style="html=1;verticalAlign=bottom;endArrow=block;curved=0;rounded=0;exitX=1;exitY=0.689;exitDx=0;exitDy=0;exitPerimeter=0;" parent="1" source="FaiDNbWziGu28Ss7Wq-9-154" target="FaiDNbWziGu28Ss7Wq-9-177" edge="1">
          <mxGeometry width="80" relative="1" as="geometry">
            <mxPoint x="3260" y="580" as="sourcePoint" />
            <mxPoint x="3560" y="560" as="targetPoint" />
          </mxGeometry>
        </mxCell>
        <mxCell id="FaiDNbWziGu28Ss7Wq-9-182" value="Текущие продукты()" style="html=1;verticalAlign=bottom;endArrow=open;dashed=1;endSize=8;curved=0;rounded=0;exitX=0;exitY=1;exitDx=0;exitDy=-5;exitPerimeter=0;" parent="1" source="FaiDNbWziGu28Ss7Wq-9-177" target="FaiDNbWziGu28Ss7Wq-9-154" edge="1">
          <mxGeometry relative="1" as="geometry">
            <mxPoint x="3600" y="540" as="sourcePoint" />
            <mxPoint x="3520" y="540" as="targetPoint" />
          </mxGeometry>
        </mxCell>
        <mxCell id="FaiDNbWziGu28Ss7Wq-9-183" value="" style="edgeStyle=none;orthogonalLoop=1;jettySize=auto;html=1;rounded=0;dashed=1;dashPattern=8 8;endArrow=none;endFill=0;" parent="1" edge="1">
          <mxGeometry width="100" relative="1" as="geometry">
            <mxPoint x="3375" y="710" as="sourcePoint" />
            <mxPoint x="3374.58" y="550" as="targetPoint" />
            <Array as="points" />
          </mxGeometry>
        </mxCell>
        <mxCell id="FaiDNbWziGu28Ss7Wq-9-184" value="" style="edgeStyle=none;orthogonalLoop=1;jettySize=auto;html=1;rounded=0;dashed=1;dashPattern=8 8;endArrow=none;endFill=0;" parent="1" edge="1">
          <mxGeometry width="100" relative="1" as="geometry">
            <mxPoint x="3195" y="710" as="sourcePoint" />
            <mxPoint x="3194.7599999999998" y="680" as="targetPoint" />
            <Array as="points" />
          </mxGeometry>
        </mxCell>
        <mxCell id="FaiDNbWziGu28Ss7Wq-9-185" value="" style="edgeStyle=none;orthogonalLoop=1;jettySize=auto;html=1;rounded=0;dashed=1;dashPattern=8 8;endArrow=none;endFill=0;" parent="1" edge="1">
          <mxGeometry width="100" relative="1" as="geometry">
            <mxPoint x="3585" y="710" as="sourcePoint" />
            <mxPoint x="3585" y="500" as="targetPoint" />
            <Array as="points" />
          </mxGeometry>
        </mxCell>
        <mxCell id="FaiDNbWziGu28Ss7Wq-9-186" value="" style="edgeStyle=none;orthogonalLoop=1;jettySize=auto;html=1;rounded=0;dashed=1;dashPattern=8 8;endArrow=none;endFill=0;" parent="1" edge="1">
          <mxGeometry width="100" relative="1" as="geometry">
            <mxPoint x="3820" y="710" as="sourcePoint" />
            <mxPoint x="3819.58" y="630" as="targetPoint" />
            <Array as="points" />
          </mxGeometry>
        </mxCell>
        <mxCell id="FaiDNbWziGu28Ss7Wq-9-191" style="edgeStyle=orthogonalEdgeStyle;rounded=0;orthogonalLoop=1;jettySize=auto;html=1;exitX=0;exitY=0;exitDx=30;exitDy=0;exitPerimeter=0;endArrow=none;endFill=0;" parent="1" source="FaiDNbWziGu28Ss7Wq-9-187" target="FaiDNbWziGu28Ss7Wq-9-190" edge="1">
          <mxGeometry relative="1" as="geometry" />
        </mxCell>
        <mxCell id="FaiDNbWziGu28Ss7Wq-9-187" value="&lt;span style=&quot;background-color: initial;&quot;&gt;&lt;br&gt;Пользователь&lt;/span&gt;" style="verticalAlign=top;align=center;spacingTop=8;spacingLeft=2;spacingRight=12;shape=cube;size=10;direction=south;fontStyle=4;html=1;whiteSpace=wrap;" parent="1" vertex="1">
          <mxGeometry x="3090" y="1180" width="140" height="70" as="geometry" />
        </mxCell>
        <mxCell id="FaiDNbWziGu28Ss7Wq-9-188" value="Диаграмму размещения" style="text;html=1;align=center;verticalAlign=middle;resizable=0;points=[];autosize=1;strokeColor=none;fillColor=none;" parent="1" vertex="1">
          <mxGeometry x="3320" y="1008" width="160" height="30" as="geometry" />
        </mxCell>
        <mxCell id="FaiDNbWziGu28Ss7Wq-9-189" value="&lt;br&gt;Менеджер&lt;br&gt;(админ)" style="verticalAlign=top;align=center;spacingTop=8;spacingLeft=2;spacingRight=12;shape=cube;size=10;direction=south;fontStyle=4;html=1;whiteSpace=wrap;" parent="1" vertex="1">
          <mxGeometry x="3080" y="1380" width="140" height="70" as="geometry" />
        </mxCell>
        <mxCell id="FaiDNbWziGu28Ss7Wq-9-190" value="&amp;lt;&amp;lt; Приложение &amp;gt;&amp;gt;&lt;br&gt;&lt;br&gt;&lt;br&gt;Выбор продукта в каталоге и создание заказа" style="verticalAlign=top;align=center;spacingTop=8;spacingLeft=2;spacingRight=12;shape=cube;size=10;direction=south;fontStyle=4;html=1;whiteSpace=wrap;" parent="1" vertex="1">
          <mxGeometry x="3430" y="1150" width="180" height="120" as="geometry" />
        </mxCell>
        <mxCell id="FaiDNbWziGu28Ss7Wq-9-192" value="&amp;lt;&amp;lt; Приложение &amp;gt;&amp;gt;&lt;br&gt;&lt;br&gt;&lt;br&gt;Выбор продукта в каталоге и создание заказа" style="verticalAlign=top;align=center;spacingTop=8;spacingLeft=2;spacingRight=12;shape=cube;size=10;direction=south;fontStyle=4;html=1;whiteSpace=wrap;" parent="1" vertex="1">
          <mxGeometry x="3429" y="1353" width="180" height="120" as="geometry" />
        </mxCell>
        <mxCell id="FaiDNbWziGu28Ss7Wq-9-193" style="edgeStyle=orthogonalEdgeStyle;rounded=0;orthogonalLoop=1;jettySize=auto;html=1;exitX=0;exitY=0;exitDx=30;exitDy=0;exitPerimeter=0;entryX=0.475;entryY=0.987;entryDx=0;entryDy=0;entryPerimeter=0;endArrow=none;endFill=0;" parent="1" source="FaiDNbWziGu28Ss7Wq-9-189" target="FaiDNbWziGu28Ss7Wq-9-192" edge="1">
          <mxGeometry relative="1" as="geometry" />
        </mxCell>
        <mxCell id="FaiDNbWziGu28Ss7Wq-9-194" value="&amp;lt;&amp;lt; Контекст БД&amp;gt;&amp;gt;&lt;br&gt;&lt;br&gt;Сущность продукта&lt;br&gt;Сущность заказа&lt;br&gt;Сущность пользователя" style="verticalAlign=top;align=center;spacingTop=8;spacingLeft=2;spacingRight=12;shape=cube;size=10;direction=south;fontStyle=4;html=1;whiteSpace=wrap;" parent="1" vertex="1">
          <mxGeometry x="3830" y="1240" width="180" height="120" as="geometry" />
        </mxCell>
        <mxCell id="FaiDNbWziGu28Ss7Wq-9-195" style="edgeStyle=orthogonalEdgeStyle;rounded=0;orthogonalLoop=1;jettySize=auto;html=1;exitX=0;exitY=0;exitDx=54.99999999999999;exitDy=0;exitPerimeter=0;entryX=0;entryY=0;entryDx=0;entryDy=85;entryPerimeter=0;endArrow=none;endFill=0;" parent="1" source="FaiDNbWziGu28Ss7Wq-9-190" target="FaiDNbWziGu28Ss7Wq-9-194" edge="1">
          <mxGeometry relative="1" as="geometry" />
        </mxCell>
        <mxCell id="FaiDNbWziGu28Ss7Wq-9-196" style="edgeStyle=orthogonalEdgeStyle;rounded=0;orthogonalLoop=1;jettySize=auto;html=1;exitX=0;exitY=0;exitDx=54.99999999999999;exitDy=0;exitPerimeter=0;entryX=0;entryY=0;entryDx=119.99999999999999;entryDy=95;entryPerimeter=0;endArrow=none;endFill=0;" parent="1" edge="1">
          <mxGeometry relative="1" as="geometry">
            <mxPoint x="3612" y="1408" as="sourcePoint" />
            <mxPoint x="3918" y="1360" as="targetPoint" />
          </mxGeometry>
        </mxCell>
        <mxCell id="FaiDNbWziGu28Ss7Wq-9-197" value="&amp;lt;&amp;lt;База данных&amp;gt;&amp;gt;&lt;br&gt;&lt;br&gt;Таблица с продуктами&lt;br&gt;Таблица с заказами&lt;br&gt;Таблица с пользователями" style="verticalAlign=top;align=center;spacingTop=8;spacingLeft=2;spacingRight=12;shape=cube;size=10;direction=south;fontStyle=4;html=1;whiteSpace=wrap;" parent="1" vertex="1">
          <mxGeometry x="3830" y="1510" width="180" height="120" as="geometry" />
        </mxCell>
        <mxCell id="FaiDNbWziGu28Ss7Wq-9-201" value="" style="endArrow=block;dashed=1;endFill=0;endSize=12;html=1;rounded=0;exitX=-0.013;exitY=0.224;exitDx=0;exitDy=0;exitPerimeter=0;entryX=1.047;entryY=0.224;entryDx=0;entryDy=0;entryPerimeter=0;" parent="1" source="FaiDNbWziGu28Ss7Wq-9-197" target="FaiDNbWziGu28Ss7Wq-9-194" edge="1">
          <mxGeometry width="160" relative="1" as="geometry">
            <mxPoint x="4030" y="1450" as="sourcePoint" />
            <mxPoint x="4190" y="1450" as="targetPoint" />
          </mxGeometry>
        </mxCell>
        <mxCell id="b21Ig0P0s9IZvQdNUgUx-1" value="&amp;lt;&amp;lt;Расширить&amp;gt;&amp;gt;&lt;span style=&quot;white-space: pre;&quot;&gt;&#x9;&lt;/span&gt;" style="endArrow=open;endSize=12;dashed=1;html=1;rounded=0;exitX=0.107;exitY=0.149;exitDx=0;exitDy=0;entryX=1;entryY=0.5;entryDx=0;entryDy=0;exitPerimeter=0;" parent="1" source="FaiDNbWziGu28Ss7Wq-9-129" target="b21Ig0P0s9IZvQdNUgUx-2" edge="1">
          <mxGeometry width="160" relative="1" as="geometry">
            <mxPoint x="1510" y="2385" as="sourcePoint" />
            <mxPoint x="1350" y="2385" as="targetPoint" />
          </mxGeometry>
        </mxCell>
        <mxCell id="b21Ig0P0s9IZvQdNUgUx-2" value="Выбрать тип бортиков&lt;br&gt;пиццы" style="ellipse;whiteSpace=wrap;html=1;" parent="1" vertex="1">
          <mxGeometry x="1200" y="2350" width="140" height="70" as="geometry" />
        </mxCell>
      </root>
    </mxGraphModel>
  </diagram>
</mxfile>
